%TF.GenerationSoftware,Altium Limited,Altium Designer,23.10.1 (27)*%
G04 Layer_Physical_Order=1*
G04 Layer_Color=255*
%FSLAX45Y45*%
%MOMM*%
%TF.SameCoordinates,CB7B006E-185E-4101-8BB4-968F6143B1B3*%
%TF.FilePolarity,Positive*%
%TF.FileFunction,Copper,L1,Top,Signal*%
%TF.Part,Single*%
G01*
G75*
%TA.AperFunction,SMDPad,CuDef*%
%ADD10R,1.27000X3.68000*%
%ADD11R,0.95000X0.85000*%
%TA.AperFunction,Conductor*%
%ADD12C,0.38100*%
%TA.AperFunction,ComponentPad*%
%ADD13C,1.85000*%
%ADD14R,1.85000X1.85000*%
%ADD15C,2.10000*%
%TA.AperFunction,ViaPad*%
%ADD16C,1.00000*%
G36*
X2986858Y2497890D02*
X3095134Y2485077D01*
X3201802Y2462498D01*
X3305984Y2430338D01*
X3406818Y2388862D01*
X3503477Y2338413D01*
X3595161Y2279406D01*
X3681117Y2212328D01*
X3760638Y2137728D01*
X3833062Y2056229D01*
X3897799Y1968493D01*
X3954311Y1875252D01*
X4002135Y1777267D01*
X4040876Y1675349D01*
X4070215Y1570337D01*
X4089909Y1463099D01*
X4099797Y1354515D01*
Y1245433D01*
X4089891Y1136752D01*
X4070161Y1029416D01*
X4040768Y924315D01*
X4001957Y822317D01*
X3954048Y724263D01*
X3897437Y630963D01*
X3832588Y543184D01*
X3760043Y461658D01*
X3680394Y387051D01*
X3594303Y319983D01*
X3502478Y261004D01*
X3405681Y210606D01*
X3304706Y169202D01*
X3200391Y137134D01*
X3093597Y114668D01*
X2985204Y101988D01*
X2876102Y99200D01*
X2767205Y106326D01*
X2659400Y123308D01*
X2553585Y150005D01*
X2450626Y186198D01*
X2351380Y231587D01*
X2256664Y285796D01*
X2211962Y317087D01*
X2209375Y318225D01*
X2207026Y319795D01*
X2204794Y320240D01*
X2202712Y321156D01*
X2199887Y321217D01*
X2197115Y321769D01*
X809135Y322046D01*
X423165Y708016D01*
X422057Y1890876D01*
X810822Y2279642D01*
X2199130D01*
X2201878Y2280188D01*
X2204681Y2280243D01*
X2206787Y2281165D01*
X2209040Y2281613D01*
X2211370Y2283170D01*
X2213938Y2284293D01*
X2258662Y2315466D01*
X2353395Y2369443D01*
X2452636Y2414608D01*
X2555558Y2450585D01*
X2661324Y2477081D01*
X2769054Y2493876D01*
X2877863Y2500831D01*
X2986858Y2497890D01*
D02*
G37*
%LPC*%
G36*
X716164Y1722780D02*
X683836D01*
X652609Y1714413D01*
X624611Y1698249D01*
X601752Y1675389D01*
X585587Y1647391D01*
X577220Y1616164D01*
Y1583836D01*
X585587Y1552609D01*
X601752Y1524611D01*
X624611Y1501752D01*
X652609Y1485587D01*
X683836Y1477220D01*
X716164D01*
X747391Y1485587D01*
X775389Y1501752D01*
X798249Y1524611D01*
X814413Y1552609D01*
X822780Y1583836D01*
Y1616164D01*
X814413Y1647391D01*
X798249Y1675389D01*
X775389Y1698249D01*
X747391Y1714413D01*
X716164Y1722780D01*
D02*
G37*
G36*
X1016164Y2122780D02*
X983836D01*
X952609Y2114413D01*
X924611Y2098249D01*
X901752Y2075389D01*
X885587Y2047391D01*
X877220Y2016164D01*
Y1983836D01*
X885587Y1952609D01*
X901752Y1924611D01*
X924611Y1901752D01*
X952609Y1885587D01*
X983836Y1877220D01*
X1016164D01*
X1047391Y1885587D01*
X1075389Y1901752D01*
X1086162Y1912524D01*
X1087440Y1913328D01*
X1107724Y1932509D01*
X1116771Y1939971D01*
X1125515Y1946425D01*
X1133762Y1951746D01*
X1141470Y1955956D01*
X1148601Y1959094D01*
X1155104Y1961213D01*
X1160974Y1962405D01*
X1161593Y1962448D01*
X1275000D01*
X1289370Y1965307D01*
X1301553Y1973447D01*
X1345554Y2017449D01*
X1452955D01*
X1464720Y2014360D01*
Y1997981D01*
X1464719Y1994720D01*
Y1985280D01*
X1464720Y1982020D01*
Y1864720D01*
X1490190D01*
X1490679Y1863515D01*
X1491494Y1860465D01*
X1492189Y1856258D01*
X1492448Y1853300D01*
Y1749280D01*
X1445720D01*
Y1345720D01*
X1608280D01*
Y1749280D01*
X1567551D01*
Y1853300D01*
X1567810Y1856258D01*
X1568506Y1860465D01*
X1569320Y1863514D01*
X1569810Y1864720D01*
X1595280D01*
Y1982020D01*
X1595280Y1985280D01*
Y1994720D01*
X1595280Y1997981D01*
Y2015190D01*
X1596485Y2015679D01*
X1599535Y2016494D01*
X1603742Y2017190D01*
X1606700Y2017449D01*
X1779446D01*
X2023447Y1773447D01*
X2035630Y1765307D01*
X2050000Y1762448D01*
X2737998D01*
X2950509Y1549937D01*
X2953459Y1545629D01*
X2956266Y1540368D01*
X2958814Y1534204D01*
X2961048Y1527116D01*
X2962922Y1519097D01*
X2964359Y1510377D01*
X2966033Y1489295D01*
X2966154Y1477515D01*
X2966496Y1475880D01*
Y1462257D01*
X2974012Y1434210D01*
X2988530Y1409063D01*
X3009063Y1388530D01*
X3034210Y1374012D01*
X3062258Y1366496D01*
X3091295D01*
X3119343Y1374012D01*
X3144490Y1388530D01*
X3165022Y1409063D01*
X3179541Y1434210D01*
X3187056Y1462257D01*
Y1491295D01*
X3179541Y1519342D01*
X3165022Y1544489D01*
X3144490Y1565022D01*
X3119343Y1579540D01*
X3091295Y1587056D01*
X3077868D01*
X3076427Y1587391D01*
X3053065Y1588133D01*
X3043409Y1589155D01*
X3034456Y1590630D01*
X3026437Y1592504D01*
X3019347Y1594739D01*
X3013185Y1597286D01*
X3007924Y1600094D01*
X3003616Y1603043D01*
X2780105Y1826553D01*
X2767923Y1834693D01*
X2753553Y1837552D01*
X2065554D01*
X1821553Y2081553D01*
X1809370Y2089693D01*
X1795000Y2092552D01*
X1606700D01*
X1603742Y2092811D01*
X1599535Y2093506D01*
X1596486Y2094321D01*
X1595280Y2094810D01*
Y2115280D01*
X1464720D01*
Y2094810D01*
X1463514Y2094321D01*
X1460464Y2093506D01*
X1456257Y2092811D01*
X1453299Y2092552D01*
X1330000D01*
X1315630Y2089693D01*
X1303447Y2081553D01*
X1259446Y2037552D01*
X1161593D01*
X1160973Y2037595D01*
X1155106Y2038787D01*
X1148600Y2040907D01*
X1141471Y2044043D01*
X1133760Y2048255D01*
X1125515Y2053575D01*
X1116949Y2059897D01*
X1097810Y2076479D01*
X1087696Y2086425D01*
X1086288Y2087349D01*
X1075389Y2098249D01*
X1047391Y2114413D01*
X1016164Y2122780D01*
D02*
G37*
G36*
X1283924Y1917780D02*
X1266076D01*
X1248838Y1913161D01*
X1233382Y1904237D01*
X1220763Y1891618D01*
X1211839Y1876162D01*
X1207220Y1858924D01*
Y1841077D01*
X1211839Y1823838D01*
X1220763Y1808382D01*
X1226004Y1803141D01*
X1226800Y1801868D01*
X1229317Y1799193D01*
X1231083Y1796976D01*
X1232621Y1794670D01*
X1233947Y1792255D01*
X1235081Y1789695D01*
X1236028Y1786962D01*
X1236784Y1784027D01*
X1237344Y1780857D01*
X1237448Y1779836D01*
Y1749280D01*
X1191720D01*
Y1345720D01*
X1354280D01*
Y1749280D01*
X1312552D01*
Y1779836D01*
X1312656Y1780858D01*
X1313216Y1784026D01*
X1313972Y1786962D01*
X1314919Y1789695D01*
X1316054Y1792256D01*
X1317379Y1794670D01*
X1318918Y1796977D01*
X1320684Y1799194D01*
X1323200Y1801868D01*
X1323996Y1803141D01*
X1329237Y1808382D01*
X1338161Y1823838D01*
X1342780Y1841077D01*
Y1858924D01*
X1338161Y1876162D01*
X1329237Y1891618D01*
X1316618Y1904237D01*
X1301162Y1913161D01*
X1283924Y1917780D01*
D02*
G37*
G36*
X2833504Y1587056D02*
X2612944D01*
Y1366496D01*
X2789885D01*
X2791447Y1364144D01*
X2794050Y1353796D01*
X2789573Y1350585D01*
X2782572Y1346236D01*
X2775980Y1342804D01*
X2769823Y1340248D01*
X2764116Y1338513D01*
X2758983Y1337552D01*
X1925000D01*
X1910629Y1334693D01*
X1898447Y1326553D01*
X1661946Y1090052D01*
X1619701D01*
X1616743Y1090310D01*
X1612536Y1091006D01*
X1609486Y1091821D01*
X1608280Y1092310D01*
Y1254280D01*
X1445720D01*
Y850720D01*
X1608280D01*
Y1012690D01*
X1609485Y1013179D01*
X1612536Y1013994D01*
X1616743Y1014689D01*
X1619701Y1014948D01*
X1677500D01*
X1691870Y1017807D01*
X1704053Y1025947D01*
X1940554Y1262448D01*
X2758983D01*
X2764116Y1261487D01*
X2769822Y1259752D01*
X2775981Y1257196D01*
X2782572Y1253764D01*
X2789571Y1249416D01*
X2796748Y1244269D01*
X2812839Y1230547D01*
X2821255Y1222301D01*
X2822654Y1221387D01*
X2832287Y1211754D01*
X2857434Y1197236D01*
X2885481Y1189720D01*
X2914519D01*
X2942566Y1197236D01*
X2967713Y1211754D01*
X2988246Y1232287D01*
X3002764Y1257434D01*
X3010280Y1285481D01*
Y1314519D01*
X3002764Y1342566D01*
X2988246Y1367713D01*
X2967713Y1388246D01*
X2942566Y1402764D01*
X2914519Y1410280D01*
X2885481D01*
X2857434Y1402764D01*
X2844503Y1395298D01*
X2833504Y1401649D01*
Y1587056D01*
D02*
G37*
G36*
X2738746Y1241124D02*
X2735924D01*
Y1135924D01*
X2841124D01*
Y1138745D01*
X2833089Y1168731D01*
X2817567Y1195616D01*
X2795616Y1217567D01*
X2768732Y1233089D01*
X2738746Y1241124D01*
D02*
G37*
G36*
X2710524D02*
X2707702D01*
X2677716Y1233089D01*
X2650832Y1217567D01*
X2628880Y1195616D01*
X2613359Y1168731D01*
X2605324Y1138745D01*
Y1135924D01*
X2710524D01*
Y1241124D01*
D02*
G37*
G36*
X1361900Y1261900D02*
X1285700D01*
Y1065200D01*
X1361900D01*
Y1261900D01*
D02*
G37*
G36*
X1260300D02*
X1184100D01*
Y1065200D01*
X1260300D01*
Y1261900D01*
D02*
G37*
G36*
X3091295Y1233504D02*
X3062258D01*
X3034210Y1225988D01*
X3009063Y1211470D01*
X2988530Y1190937D01*
X2974012Y1165790D01*
X2966496Y1137742D01*
Y1108705D01*
X2974012Y1080657D01*
X2988530Y1055510D01*
X3009063Y1034978D01*
X3034210Y1020459D01*
X3062258Y1012944D01*
X3091295D01*
X3119343Y1020459D01*
X3144490Y1034978D01*
X3165022Y1055510D01*
X3179541Y1080657D01*
X3187056Y1108705D01*
Y1137742D01*
X3179541Y1165790D01*
X3165022Y1190937D01*
X3144490Y1211470D01*
X3119343Y1225988D01*
X3091295Y1233504D01*
D02*
G37*
G36*
X2841124Y1110524D02*
X2735924D01*
Y1005324D01*
X2738746D01*
X2768732Y1013359D01*
X2795616Y1028880D01*
X2817567Y1050832D01*
X2833089Y1077716D01*
X2841124Y1107702D01*
Y1110524D01*
D02*
G37*
G36*
X2710524D02*
X2605324D01*
Y1107702D01*
X2613359Y1077716D01*
X2628880Y1050832D01*
X2650832Y1028880D01*
X2677716Y1013359D01*
X2707702Y1005324D01*
X2710524D01*
Y1110524D01*
D02*
G37*
G36*
X716164Y1122780D02*
X683836D01*
X652609Y1114413D01*
X624611Y1098249D01*
X601752Y1075389D01*
X585587Y1047391D01*
X577220Y1016164D01*
Y983836D01*
X585587Y952609D01*
X601752Y924611D01*
X624611Y901752D01*
X652609Y885587D01*
X683836Y877220D01*
X716164D01*
X747391Y885587D01*
X775389Y901752D01*
X798249Y924611D01*
X814413Y952609D01*
X822780Y983836D01*
Y1016164D01*
X814413Y1047391D01*
X798249Y1075389D01*
X775389Y1098249D01*
X747391Y1114413D01*
X716164Y1122780D01*
D02*
G37*
G36*
X1361900Y1039800D02*
X1285700D01*
Y843100D01*
X1361900D01*
Y1039800D01*
D02*
G37*
G36*
X1260300D02*
X1184100D01*
Y843100D01*
X1260300D01*
Y1039800D01*
D02*
G37*
G36*
X1017168Y730400D02*
X1012700D01*
Y612700D01*
X1130400D01*
Y617168D01*
X1121514Y650333D01*
X1104346Y680067D01*
X1080067Y704346D01*
X1050333Y721514D01*
X1017168Y730400D01*
D02*
G37*
G36*
X987300D02*
X982832D01*
X949667Y721514D01*
X919933Y704346D01*
X895654Y680067D01*
X878486Y650333D01*
X869600Y617168D01*
Y612700D01*
X987300D01*
Y730400D01*
D02*
G37*
G36*
X1130400Y587300D02*
X1012700D01*
Y469600D01*
X1017168D01*
X1050333Y478486D01*
X1080067Y495654D01*
X1104346Y519933D01*
X1121514Y549667D01*
X1130400Y582832D01*
Y587300D01*
D02*
G37*
G36*
X987300D02*
X869600D01*
Y582832D01*
X878486Y549667D01*
X895654Y519933D01*
X919933Y495654D01*
X949667Y478486D01*
X982832Y469600D01*
X987300D01*
Y587300D01*
D02*
G37*
G36*
X2914519Y680280D02*
X2885481D01*
X2857434Y672764D01*
X2832287Y658246D01*
X2811754Y637713D01*
X2797236Y612566D01*
X2789720Y584519D01*
Y555481D01*
X2797236Y527434D01*
X2811754Y502287D01*
X2832287Y481754D01*
X2857434Y467236D01*
X2885481Y459720D01*
X2914519D01*
X2942566Y467236D01*
X2967713Y481754D01*
X2988246Y502287D01*
X3002764Y527434D01*
X3010280Y555481D01*
Y584519D01*
X3002764Y612566D01*
X2988246Y637713D01*
X2967713Y658246D01*
X2942566Y672764D01*
X2914519Y680280D01*
D02*
G37*
%LPD*%
G36*
X1577274Y2089481D02*
X1578426Y2086242D01*
X1580347Y2083385D01*
X1583035Y2080908D01*
X1586491Y2078813D01*
X1590716Y2077098D01*
X1595709Y2075765D01*
X1601469Y2074812D01*
X1607998Y2074241D01*
X1615295Y2074050D01*
Y2035950D01*
X1607998Y2035760D01*
X1601469Y2035188D01*
X1595709Y2034236D01*
X1590716Y2032902D01*
X1586491Y2031188D01*
X1583035Y2029092D01*
X1580347Y2026616D01*
X1578426Y2023758D01*
X1577274Y2020520D01*
X1576890Y2016900D01*
Y2093100D01*
X1577274Y2089481D01*
D02*
G37*
G36*
X1483109Y2016900D02*
X1482725Y2020520D01*
X1481573Y2023758D01*
X1479653Y2026616D01*
X1476965Y2029092D01*
X1473508Y2031188D01*
X1469284Y2032902D01*
X1464291Y2034236D01*
X1458530Y2035188D01*
X1452001Y2035760D01*
X1444705Y2035950D01*
Y2074050D01*
X1452001Y2074241D01*
X1458530Y2074812D01*
X1464291Y2075765D01*
X1469284Y2077098D01*
X1473508Y2078813D01*
X1476965Y2080908D01*
X1479653Y2083385D01*
X1481573Y2086242D01*
X1482725Y2089481D01*
X1483109Y2093100D01*
Y2016900D01*
D02*
G37*
G36*
X1085505Y2063155D02*
X1105616Y2045730D01*
X1115207Y2038652D01*
X1124489Y2032663D01*
X1133462Y2027762D01*
X1142125Y2023950D01*
X1150478Y2021228D01*
X1158523Y2019595D01*
X1166258Y2019050D01*
Y1980950D01*
X1158523Y1980405D01*
X1150478Y1978772D01*
X1142125Y1976050D01*
X1133462Y1972238D01*
X1124489Y1967337D01*
X1115207Y1961348D01*
X1105616Y1954270D01*
X1095715Y1946102D01*
X1074985Y1926500D01*
Y2073500D01*
X1085505Y2063155D01*
D02*
G37*
G36*
X1564480Y1882726D02*
X1561242Y1881574D01*
X1558384Y1879653D01*
X1555908Y1876965D01*
X1553812Y1873509D01*
X1552098Y1869284D01*
X1550764Y1864291D01*
X1549812Y1858531D01*
X1549240Y1852002D01*
X1549050Y1844705D01*
X1510950D01*
X1510759Y1852002D01*
X1510188Y1858531D01*
X1509235Y1864291D01*
X1507902Y1869284D01*
X1506187Y1873509D01*
X1504092Y1876965D01*
X1501615Y1879653D01*
X1498758Y1881574D01*
X1495519Y1882726D01*
X1491900Y1883110D01*
X1568100D01*
X1564480Y1882726D01*
D02*
G37*
G36*
X2992361Y1588778D02*
X2998508Y1584570D01*
X3005437Y1580873D01*
X3013149Y1577685D01*
X3021643Y1575008D01*
X3030920Y1572840D01*
X3040979Y1571183D01*
X3051820Y1570035D01*
X3075851Y1569271D01*
X2984281Y1477701D01*
X2984154Y1490108D01*
X2982369Y1512574D01*
X2980712Y1522633D01*
X2978545Y1531910D01*
X2975867Y1540404D01*
X2972680Y1548115D01*
X2968982Y1555044D01*
X2964774Y1561191D01*
X2960056Y1566555D01*
X2986997Y1593496D01*
X2992361Y1588778D01*
D02*
G37*
G36*
X1306969Y1811074D02*
X1304258Y1807669D01*
X1301866Y1804080D01*
X1299792Y1800305D01*
X1298038Y1796345D01*
X1296602Y1792201D01*
X1295486Y1787871D01*
X1294688Y1783356D01*
X1294210Y1778656D01*
X1294050Y1773771D01*
X1255950D01*
X1255790Y1778656D01*
X1255312Y1783356D01*
X1254514Y1787871D01*
X1253398Y1792201D01*
X1251962Y1796345D01*
X1250208Y1800305D01*
X1248134Y1804080D01*
X1245742Y1807669D01*
X1243031Y1811074D01*
X1240000Y1814293D01*
X1310000D01*
X1306969Y1811074D01*
D02*
G37*
G36*
X2833942Y1235250D02*
X2825079Y1243933D01*
X2807932Y1258557D01*
X2799647Y1264498D01*
X2791555Y1269525D01*
X2783655Y1273638D01*
X2775948Y1276837D01*
X2768434Y1279122D01*
X2761112Y1280493D01*
X2753983Y1280950D01*
Y1319050D01*
X2761112Y1319507D01*
X2768434Y1320878D01*
X2775948Y1323163D01*
X2783655Y1326362D01*
X2791555Y1330475D01*
X2799647Y1335502D01*
X2807932Y1341443D01*
X2816409Y1348298D01*
X2833942Y1364750D01*
Y1235250D01*
D02*
G37*
G36*
X1590274Y1086981D02*
X1591427Y1083742D01*
X1593347Y1080885D01*
X1596035Y1078408D01*
X1599492Y1076313D01*
X1603716Y1074598D01*
X1608709Y1073265D01*
X1614469Y1072312D01*
X1620998Y1071741D01*
X1628295Y1071550D01*
Y1033450D01*
X1620998Y1033260D01*
X1614469Y1032688D01*
X1608709Y1031736D01*
X1603716Y1030402D01*
X1599492Y1028688D01*
X1596035Y1026592D01*
X1593347Y1024116D01*
X1591427Y1021258D01*
X1590274Y1018020D01*
X1589890Y1014400D01*
Y1090600D01*
X1590274Y1086981D01*
D02*
G37*
D10*
X1527000Y1547500D02*
D03*
X1273000D02*
D03*
Y1052500D02*
D03*
X1527000D02*
D03*
D11*
X1530000Y2055000D02*
D03*
Y1925000D02*
D03*
D12*
X2050000Y1800000D02*
X2753553D01*
X3076776Y1476776D01*
X1795000Y2055000D02*
X2050000Y1800000D01*
X1273000Y1731500D02*
X1275000Y1733500D01*
Y1850000D01*
X1273000Y1547500D02*
Y1731500D01*
X1000000Y600000D02*
X1044423D01*
X1677500Y1052500D02*
X1925000Y1300000D01*
X2900000D01*
X1527000Y1052500D02*
X1677500D01*
X1275000Y2000000D02*
X1330000Y2055000D01*
X1530000D01*
X1000000Y2000000D02*
X1275000D01*
X1530000Y2055000D02*
X1795000D01*
X1527000Y1731500D02*
X1530000Y1734500D01*
Y1925000D01*
X1527000Y1547500D02*
Y1731500D01*
D13*
X2900000Y570000D02*
D03*
Y1300000D02*
D03*
X3076776Y1476776D02*
D03*
X2723224Y1123224D02*
D03*
X3076776D02*
D03*
D14*
X2723224Y1476776D02*
D03*
D15*
X1000000Y600000D02*
D03*
X700000Y1000000D02*
D03*
Y1600000D02*
D03*
X1000000Y2000000D02*
D03*
D16*
X1275000Y1850000D02*
D03*
%TF.MD5,8f1da718d83d92af31c056c64de07e4f*%
M02*
