%TF.GenerationSoftware,Altium Limited,Altium Designer,23.10.1 (27)*%
G04 Layer_Physical_Order=2*
G04 Layer_Color=16711680*
%FSLAX45Y45*%
%MOMM*%
%TF.SameCoordinates,CB7B006E-185E-4101-8BB4-968F6143B1B3*%
%TF.FilePolarity,Positive*%
%TF.FileFunction,Copper,L2,Bot,Signal*%
%TF.Part,Single*%
G01*
G75*
%TA.AperFunction,Conductor*%
%ADD12C,0.38100*%
%TA.AperFunction,ComponentPad*%
%ADD13C,1.85000*%
%ADD14R,1.85000X1.85000*%
%ADD15C,2.10000*%
%TA.AperFunction,ViaPad*%
%ADD16C,1.00000*%
G36*
X2986858Y2497890D02*
X3095134Y2485077D01*
X3201802Y2462498D01*
X3305984Y2430338D01*
X3406818Y2388862D01*
X3503477Y2338413D01*
X3595161Y2279406D01*
X3681117Y2212328D01*
X3760638Y2137728D01*
X3833062Y2056229D01*
X3897799Y1968493D01*
X3954311Y1875252D01*
X4002135Y1777267D01*
X4040876Y1675349D01*
X4070215Y1570337D01*
X4089909Y1463099D01*
X4099797Y1354515D01*
Y1245433D01*
X4089891Y1136752D01*
X4070161Y1029416D01*
X4040768Y924315D01*
X4001957Y822317D01*
X3954048Y724263D01*
X3897437Y630963D01*
X3832588Y543184D01*
X3760043Y461658D01*
X3680394Y387051D01*
X3594303Y319983D01*
X3502478Y261004D01*
X3405681Y210606D01*
X3304706Y169202D01*
X3200391Y137134D01*
X3093597Y114668D01*
X2985204Y101988D01*
X2876102Y99200D01*
X2767205Y106326D01*
X2659400Y123308D01*
X2553585Y150005D01*
X2450626Y186198D01*
X2351380Y231587D01*
X2256664Y285796D01*
X2211962Y317087D01*
X2209375Y318225D01*
X2207026Y319795D01*
X2204794Y320240D01*
X2202712Y321156D01*
X2199887Y321217D01*
X2197115Y321769D01*
X809135Y322046D01*
X423165Y708016D01*
X422057Y1890876D01*
X810822Y2279642D01*
X2199130D01*
X2201878Y2280188D01*
X2204681Y2280243D01*
X2206787Y2281165D01*
X2209040Y2281613D01*
X2211370Y2283170D01*
X2213938Y2284293D01*
X2258662Y2315466D01*
X2353395Y2369443D01*
X2452636Y2414608D01*
X2555558Y2450585D01*
X2661324Y2477081D01*
X2769054Y2493876D01*
X2877863Y2500831D01*
X2986858Y2497890D01*
D02*
G37*
%LPC*%
G36*
X1016164Y2122780D02*
X983836D01*
X952609Y2114413D01*
X924611Y2098249D01*
X901752Y2075389D01*
X885587Y2047391D01*
X877220Y2016164D01*
Y1983836D01*
X885587Y1952609D01*
X901752Y1924611D01*
X924611Y1901752D01*
X952609Y1885587D01*
X983836Y1877220D01*
X1016164D01*
X1047391Y1885587D01*
X1075389Y1901752D01*
X1098249Y1924611D01*
X1114413Y1952609D01*
X1122780Y1983836D01*
Y2016164D01*
X1114413Y2047391D01*
X1098249Y2075389D01*
X1075389Y2098249D01*
X1047391Y2114413D01*
X1016164Y2122780D01*
D02*
G37*
G36*
X3091295Y1587056D02*
X3062258D01*
X3034210Y1579540D01*
X3009063Y1565022D01*
X2988530Y1544489D01*
X2974012Y1519342D01*
X2966496Y1491295D01*
Y1462257D01*
X2974012Y1434210D01*
X2988530Y1409063D01*
X3009063Y1388530D01*
X3034210Y1374012D01*
X3062258Y1366496D01*
X3091295D01*
X3119343Y1374012D01*
X3144490Y1388530D01*
X3165022Y1409063D01*
X3179541Y1434210D01*
X3187056Y1462257D01*
Y1491295D01*
X3179541Y1519342D01*
X3165022Y1544489D01*
X3144490Y1565022D01*
X3119343Y1579540D01*
X3091295Y1587056D01*
D02*
G37*
G36*
X1283924Y1917780D02*
X1266076D01*
X1248838Y1913161D01*
X1233382Y1904237D01*
X1220763Y1891618D01*
X1211839Y1876162D01*
X1207220Y1858924D01*
Y1841077D01*
X1211839Y1823838D01*
X1220763Y1808382D01*
X1233382Y1795763D01*
X1248838Y1786839D01*
X1266076Y1782220D01*
X1283924D01*
X1301162Y1786839D01*
X1316618Y1795763D01*
X1321859Y1801004D01*
X1323132Y1801800D01*
X1325807Y1804317D01*
X1328025Y1806084D01*
X1330331Y1807621D01*
X1332745Y1808947D01*
X1335305Y1810081D01*
X1338038Y1811028D01*
X1340973Y1811785D01*
X1344143Y1812345D01*
X1345164Y1812448D01*
X1609446D01*
X1712448Y1709446D01*
Y1550000D01*
X1715307Y1535630D01*
X1723447Y1523447D01*
X1796671Y1450223D01*
X1808854Y1442083D01*
X1823224Y1439224D01*
X2601523D01*
X2604481Y1438966D01*
X2608688Y1438270D01*
X2611738Y1437455D01*
X2612944Y1436966D01*
Y1366496D01*
X2789885D01*
X2791447Y1364144D01*
X2794050Y1353796D01*
X2789573Y1350585D01*
X2782572Y1346236D01*
X2775980Y1342804D01*
X2769823Y1340248D01*
X2764116Y1338513D01*
X2758983Y1337552D01*
X1765554D01*
X1476553Y1626553D01*
X1464370Y1634693D01*
X1450000Y1637552D01*
X861593D01*
X860973Y1637595D01*
X855106Y1638787D01*
X848601Y1640907D01*
X841471Y1644043D01*
X833761Y1648255D01*
X825515Y1653575D01*
X816949Y1659897D01*
X797810Y1676479D01*
X787696Y1686425D01*
X786288Y1687349D01*
X775389Y1698249D01*
X747391Y1714413D01*
X716164Y1722780D01*
X683836D01*
X652609Y1714413D01*
X624611Y1698249D01*
X601752Y1675389D01*
X585587Y1647391D01*
X577220Y1616164D01*
Y1583836D01*
X585587Y1552609D01*
X601752Y1524611D01*
X624611Y1501752D01*
X652609Y1485587D01*
X683836Y1477220D01*
X716164D01*
X747391Y1485587D01*
X775389Y1501752D01*
X786162Y1512525D01*
X787440Y1513328D01*
X807725Y1532509D01*
X816771Y1539972D01*
X825515Y1546425D01*
X833762Y1551746D01*
X841470Y1555956D01*
X848601Y1559094D01*
X855104Y1561213D01*
X860974Y1562405D01*
X861593Y1562448D01*
X1434446D01*
X1723447Y1273447D01*
X1735630Y1265307D01*
X1750000Y1262448D01*
X2758983D01*
X2764116Y1261487D01*
X2769822Y1259752D01*
X2775981Y1257196D01*
X2782572Y1253764D01*
X2789571Y1249416D01*
X2796748Y1244269D01*
X2812839Y1230547D01*
X2821255Y1222301D01*
X2822654Y1221387D01*
X2832287Y1211754D01*
X2857434Y1197236D01*
X2885481Y1189720D01*
X2914519D01*
X2942566Y1197236D01*
X2967713Y1211754D01*
X2988246Y1232287D01*
X3002764Y1257434D01*
X3010280Y1285481D01*
Y1314519D01*
X3002764Y1342566D01*
X2988246Y1367713D01*
X2967713Y1388246D01*
X2942566Y1402764D01*
X2914519Y1410280D01*
X2885481D01*
X2857434Y1402764D01*
X2844503Y1395298D01*
X2833504Y1401649D01*
Y1587056D01*
X2612944D01*
Y1516586D01*
X2611739Y1516097D01*
X2608688Y1515282D01*
X2604481Y1514587D01*
X2601523Y1514328D01*
X1838778D01*
X1787552Y1565554D01*
Y1725000D01*
X1784693Y1739371D01*
X1776553Y1751553D01*
X1651553Y1876553D01*
X1639370Y1884693D01*
X1625000Y1887552D01*
X1345164D01*
X1344142Y1887656D01*
X1340974Y1888216D01*
X1338038Y1888972D01*
X1335305Y1889919D01*
X1332744Y1891054D01*
X1330331Y1892380D01*
X1328023Y1893918D01*
X1325806Y1895684D01*
X1323132Y1898200D01*
X1321859Y1898996D01*
X1316618Y1904237D01*
X1301162Y1913161D01*
X1283924Y1917780D01*
D02*
G37*
G36*
X2738746Y1241124D02*
X2735924D01*
Y1135924D01*
X2841124D01*
Y1138745D01*
X2833089Y1168731D01*
X2817567Y1195616D01*
X2795616Y1217567D01*
X2768732Y1233089D01*
X2738746Y1241124D01*
D02*
G37*
G36*
X2710524D02*
X2707702D01*
X2677716Y1233089D01*
X2650832Y1217567D01*
X2628880Y1195616D01*
X2613359Y1168731D01*
X2605324Y1138745D01*
Y1135924D01*
X2710524D01*
Y1241124D01*
D02*
G37*
G36*
X2841124Y1110524D02*
X2735924D01*
Y1005324D01*
X2738746D01*
X2768732Y1013359D01*
X2795616Y1028880D01*
X2817567Y1050832D01*
X2833089Y1077716D01*
X2841124Y1107702D01*
Y1110524D01*
D02*
G37*
G36*
X2710524D02*
X2605324D01*
Y1107702D01*
X2613359Y1077716D01*
X2628880Y1050832D01*
X2650832Y1028880D01*
X2677716Y1013359D01*
X2707702Y1005324D01*
X2710524D01*
Y1110524D01*
D02*
G37*
G36*
X3091295Y1233504D02*
X3062258D01*
X3034210Y1225988D01*
X3009063Y1211470D01*
X2988530Y1190937D01*
X2974012Y1165790D01*
X2966496Y1137742D01*
Y1124316D01*
X2966162Y1122875D01*
X2965419Y1099513D01*
X2964397Y1089856D01*
X2962922Y1080904D01*
X2961048Y1072885D01*
X2958813Y1065795D01*
X2956266Y1059632D01*
X2953459Y1054371D01*
X2950509Y1050062D01*
X2787998Y887552D01*
X1690554D01*
X1551553Y1026553D01*
X1539370Y1034693D01*
X1525000Y1037552D01*
X861593D01*
X860973Y1037595D01*
X855106Y1038787D01*
X848601Y1040906D01*
X841471Y1044043D01*
X833761Y1048255D01*
X825515Y1053575D01*
X816949Y1059897D01*
X797810Y1076479D01*
X787696Y1086425D01*
X786288Y1087349D01*
X775389Y1098249D01*
X747391Y1114413D01*
X716164Y1122780D01*
X683836D01*
X652609Y1114413D01*
X624611Y1098249D01*
X601752Y1075389D01*
X585587Y1047391D01*
X577220Y1016164D01*
Y983836D01*
X585587Y952609D01*
X601752Y924611D01*
X624611Y901752D01*
X652609Y885587D01*
X683836Y877220D01*
X716164D01*
X747391Y885587D01*
X775389Y901752D01*
X786162Y912524D01*
X787440Y913328D01*
X807725Y932509D01*
X816771Y939971D01*
X825515Y946425D01*
X833762Y951746D01*
X841470Y955956D01*
X848601Y959094D01*
X855104Y961213D01*
X860974Y962405D01*
X861593Y962448D01*
X1509446D01*
X1648447Y823447D01*
X1660630Y815307D01*
X1675000Y812448D01*
X2803552D01*
X2817923Y815307D01*
X2830105Y823447D01*
X3003615Y996957D01*
X3007924Y999906D01*
X3013185Y1002714D01*
X3019348Y1005261D01*
X3026439Y1007497D01*
X3034456Y1009370D01*
X3043175Y1010806D01*
X3064257Y1012481D01*
X3076037Y1012601D01*
X3077672Y1012944D01*
X3091295D01*
X3119343Y1020459D01*
X3144490Y1034978D01*
X3165022Y1055510D01*
X3179541Y1080657D01*
X3187056Y1108705D01*
Y1137742D01*
X3179541Y1165790D01*
X3165022Y1190937D01*
X3144490Y1211470D01*
X3119343Y1225988D01*
X3091295Y1233504D01*
D02*
G37*
G36*
X1017168Y730400D02*
X1012700D01*
Y612700D01*
X1130400D01*
Y617168D01*
X1121514Y650333D01*
X1104346Y680067D01*
X1080067Y704346D01*
X1050333Y721514D01*
X1017168Y730400D01*
D02*
G37*
G36*
X987300D02*
X982832D01*
X949667Y721514D01*
X919933Y704346D01*
X895654Y680067D01*
X878486Y650333D01*
X869600Y617168D01*
Y612700D01*
X987300D01*
Y730400D01*
D02*
G37*
G36*
X1130400Y587300D02*
X1012700D01*
Y469600D01*
X1017168D01*
X1050333Y478486D01*
X1080067Y495654D01*
X1104346Y519933D01*
X1121514Y549667D01*
X1130400Y582832D01*
Y587300D01*
D02*
G37*
G36*
X987300D02*
X869600D01*
Y582832D01*
X878486Y549667D01*
X895654Y519933D01*
X919933Y495654D01*
X949667Y478486D01*
X982832Y469600D01*
X987300D01*
Y587300D01*
D02*
G37*
G36*
X2914519Y680280D02*
X2885481D01*
X2857434Y672764D01*
X2832287Y658246D01*
X2811754Y637713D01*
X2797236Y612566D01*
X2789720Y584519D01*
Y555481D01*
X2797236Y527434D01*
X2811754Y502287D01*
X2832287Y481754D01*
X2857434Y467236D01*
X2885481Y459720D01*
X2914519D01*
X2942566Y467236D01*
X2967713Y481754D01*
X2988246Y502287D01*
X3002764Y527434D01*
X3010280Y555481D01*
Y584519D01*
X3002764Y612566D01*
X2988246Y637713D01*
X2967713Y658246D01*
X2942566Y672764D01*
X2914519Y680280D01*
D02*
G37*
%LPD*%
G36*
X1313927Y1881970D02*
X1317331Y1879258D01*
X1320920Y1876866D01*
X1324695Y1874792D01*
X1328655Y1873038D01*
X1332799Y1871602D01*
X1337129Y1870486D01*
X1341644Y1869688D01*
X1346344Y1869210D01*
X1351229Y1869050D01*
Y1830950D01*
X1346344Y1830791D01*
X1341644Y1830312D01*
X1337129Y1829515D01*
X1332799Y1828398D01*
X1328655Y1826963D01*
X1324695Y1825208D01*
X1320920Y1823135D01*
X1317331Y1820742D01*
X1313927Y1818031D01*
X1310707Y1815000D01*
Y1885000D01*
X1313927Y1881970D01*
D02*
G37*
G36*
X785505Y1663155D02*
X805616Y1645731D01*
X815207Y1638652D01*
X824489Y1632663D01*
X833462Y1627762D01*
X842125Y1623951D01*
X850478Y1621228D01*
X858523Y1619595D01*
X866258Y1619050D01*
Y1580950D01*
X858523Y1580406D01*
X850478Y1578772D01*
X842125Y1576050D01*
X833462Y1572238D01*
X824489Y1567337D01*
X815207Y1561348D01*
X805616Y1554270D01*
X795715Y1546102D01*
X774985Y1526500D01*
Y1673500D01*
X785505Y1663155D01*
D02*
G37*
G36*
X2631334Y1438676D02*
X2630950Y1442296D01*
X2629797Y1445534D01*
X2627877Y1448392D01*
X2625189Y1450868D01*
X2621732Y1452964D01*
X2617508Y1454678D01*
X2612515Y1456012D01*
X2606755Y1456964D01*
X2600226Y1457536D01*
X2592929Y1457726D01*
Y1495826D01*
X2600226Y1496017D01*
X2606755Y1496588D01*
X2612515Y1497541D01*
X2617508Y1498874D01*
X2621732Y1500589D01*
X2625189Y1502684D01*
X2627877Y1505161D01*
X2629797Y1508018D01*
X2630950Y1511257D01*
X2631334Y1514876D01*
Y1438676D01*
D02*
G37*
G36*
X2833942Y1235250D02*
X2825079Y1243933D01*
X2807932Y1258557D01*
X2799647Y1264498D01*
X2791555Y1269525D01*
X2783655Y1273638D01*
X2775948Y1276837D01*
X2768434Y1279122D01*
X2761112Y1280493D01*
X2753983Y1280950D01*
Y1319050D01*
X2761112Y1319507D01*
X2768434Y1320878D01*
X2775948Y1323163D01*
X2783655Y1326362D01*
X2791555Y1330475D01*
X2799647Y1335502D01*
X2807932Y1341443D01*
X2816409Y1348298D01*
X2833942Y1364750D01*
Y1235250D01*
D02*
G37*
G36*
X3075851Y1030728D02*
X3063444Y1030601D01*
X3040979Y1028817D01*
X3030920Y1027160D01*
X3021643Y1024992D01*
X3013149Y1022315D01*
X3005437Y1019127D01*
X2998508Y1015430D01*
X2992361Y1011222D01*
X2986997Y1006504D01*
X2960056Y1033444D01*
X2964774Y1038809D01*
X2968982Y1044955D01*
X2972680Y1051885D01*
X2975867Y1059596D01*
X2978545Y1068091D01*
X2980712Y1077367D01*
X2982369Y1087426D01*
X2983517Y1098268D01*
X2984281Y1122299D01*
X3075851Y1030728D01*
D02*
G37*
G36*
X785505Y1063155D02*
X805616Y1045730D01*
X815207Y1038652D01*
X824489Y1032663D01*
X833462Y1027762D01*
X842125Y1023950D01*
X850478Y1021228D01*
X858523Y1019595D01*
X866258Y1019050D01*
Y980950D01*
X858523Y980405D01*
X850478Y978772D01*
X842125Y976050D01*
X833462Y972238D01*
X824489Y967337D01*
X815207Y961348D01*
X805616Y954270D01*
X795715Y946102D01*
X774985Y926500D01*
Y1073500D01*
X785505Y1063155D01*
D02*
G37*
D12*
X2803552Y850000D02*
X3076776Y1123224D01*
X1675000Y850000D02*
X2803552D01*
X1750000Y1550000D02*
X1823224Y1476776D01*
X2723224D01*
X1750000Y1550000D02*
Y1725000D01*
X1625000Y1850000D02*
X1750000Y1725000D01*
X1275000Y1850000D02*
X1625000D01*
X1525000Y1000000D02*
X1675000Y850000D01*
X700000Y1000000D02*
X1525000D01*
X1750000Y1300000D02*
X2900000D01*
X700000Y1600000D02*
X1450000D01*
X1750000Y1300000D01*
D13*
X2900000Y570000D02*
D03*
Y1300000D02*
D03*
X3076776Y1476776D02*
D03*
X2723224Y1123224D02*
D03*
X3076776D02*
D03*
D14*
X2723224Y1476776D02*
D03*
D15*
X1000000Y600000D02*
D03*
X700000Y1000000D02*
D03*
Y1600000D02*
D03*
X1000000Y2000000D02*
D03*
D16*
X1275000Y1850000D02*
D03*
%TF.MD5,7f94e6d7e85a6102e4414985231da304*%
M02*
