%TF.GenerationSoftware,Altium Limited,Altium Designer,23.10.1 (27)*%
G04 Layer_Color=32896*
%FSLAX45Y45*%
%MOMM*%
%TF.SameCoordinates,CB7B006E-185E-4101-8BB4-968F6143B1B3*%
%TF.FilePolarity,Positive*%
%TF.FileFunction,Legend,Bot*%
%TF.Part,Single*%
G01*
G75*
%TA.AperFunction,NonConductor*%
%ADD20C,0.25400*%
D20*
X1530101Y650784D02*
X1555493Y676175D01*
X1606277D01*
X1631669Y650784D01*
Y549217D01*
X1606277Y523825D01*
X1555493D01*
X1530101Y549217D01*
Y600000D01*
X1580885D01*
X1479318Y523825D02*
Y676175D01*
X1377751Y523825D01*
Y676175D01*
X1326967D02*
Y523825D01*
X1250792D01*
X1225400Y549217D01*
Y650784D01*
X1250792Y676175D01*
X1326967D01*
X1306277Y923825D02*
X1255493D01*
X1280885D01*
Y1076175D01*
X1306277Y1050784D01*
X1077751Y923825D02*
X1179318D01*
X1077751Y1025392D01*
Y1050784D01*
X1103143Y1076175D01*
X1153926D01*
X1179318Y1050784D01*
X1026967Y1076175D02*
Y974608D01*
X976184Y923825D01*
X925400Y974608D01*
Y1076175D01*
X1382452Y1650784D02*
X1407844Y1676175D01*
X1458628D01*
X1484019Y1650784D01*
Y1549217D01*
X1458628Y1523825D01*
X1407844D01*
X1382452Y1549217D01*
X1331669Y1523825D02*
Y1625392D01*
X1280885Y1676175D01*
X1230101Y1625392D01*
Y1523825D01*
Y1600000D01*
X1331669D01*
X1179318Y1523825D02*
Y1676175D01*
X1077751Y1523825D01*
Y1676175D01*
X1026967D02*
Y1523825D01*
X925400D01*
X1682452Y2050784D02*
X1707844Y2076175D01*
X1758627D01*
X1784019Y2050784D01*
Y1949217D01*
X1758627Y1923825D01*
X1707844D01*
X1682452Y1949217D01*
X1631669Y1923825D02*
Y2025392D01*
X1580885Y2076175D01*
X1530101Y2025392D01*
Y1923825D01*
Y2000000D01*
X1631669D01*
X1479318Y1923825D02*
Y2076175D01*
X1377751Y1923825D01*
Y2076175D01*
X1326967D02*
Y1923825D01*
Y2000000D01*
X1225400D01*
Y2076175D01*
Y1923825D01*
%TF.MD5,435e68858d2edaee0aff4c66b182c7d9*%
M02*
