%TF.GenerationSoftware,Altium Limited,Altium Designer,23.10.1 (27)*%
G04 Layer_Color=65535*
%FSLAX45Y45*%
%MOMM*%
%TF.SameCoordinates,3B401655-87E5-4DED-8554-5CA7246403C5*%
%TF.FilePolarity,Positive*%
%TF.FileFunction,Legend,Top*%
%TF.Part,Single*%
G01*
G75*
%TA.AperFunction,NonConductor*%
%ADD18C,0.20000*%
%ADD19C,0.15000*%
%ADD20C,0.25400*%
D18*
X1158500Y600000D02*
G03*
X1158500Y600000I-158500J0D01*
G01*
X858500Y1000000D02*
G03*
X858500Y1000000I-158500J0D01*
G01*
Y1600000D02*
G03*
X858500Y1600000I-158500J0D01*
G01*
X1158500Y2000000D02*
G03*
X1158500Y2000000I-158500J0D01*
G01*
X1075000Y1725000D02*
X1125000Y1675000D01*
X1075000Y1625000D02*
X1125000Y1675000D01*
X1025000D02*
X1125000D01*
X1025000Y1550000D02*
Y1675000D01*
X1525000Y825000D02*
X1575000Y775000D01*
X1475000D02*
X1525000Y825000D01*
Y650000D02*
Y825000D01*
X1146000Y1554000D02*
X1169500D01*
X1146000Y1046000D02*
X1169500D01*
X1146000D02*
Y1554000D01*
X1654000Y1046000D02*
Y1554000D01*
X1628600Y1046000D02*
X1654000D01*
X1628600Y1554000D02*
X1654000D01*
X3130000Y800000D02*
Y1800000D01*
D19*
X1580800Y1863000D02*
X1600000D01*
Y2117000D01*
X1580800D02*
X1600000D01*
X1460000D02*
X1479200D01*
X1460000Y1863000D02*
Y2117000D01*
Y1863000D02*
X1479200D01*
D20*
X1064987Y1424919D02*
X1084981Y1444913D01*
Y1484899D01*
X1064987Y1504893D01*
X1044994D01*
X1025000Y1484899D01*
Y1444913D01*
X1005006Y1424919D01*
X985013D01*
X965019Y1444913D01*
Y1484899D01*
X985013Y1504893D01*
X1084981Y1384932D02*
X965019D01*
X1025000D01*
Y1304958D01*
X1084981D01*
X965019D01*
X1084981Y1264971D02*
Y1224984D01*
Y1244977D01*
X965019D01*
Y1264971D01*
Y1224984D01*
X1084981Y1085029D02*
Y1165003D01*
X965019D01*
Y1085029D01*
X1025000Y1165003D02*
Y1125016D01*
X1084981Y1045042D02*
X965019D01*
Y965068D01*
X1084981Y925081D02*
X965019D01*
Y865100D01*
X985013Y845107D01*
X1064987D01*
X1084981Y865100D01*
Y925081D01*
X1290068Y465019D02*
X1330055D01*
X1310062D01*
Y584981D01*
X1290068Y564987D01*
X1470010Y465019D02*
X1390036D01*
X1470010Y544994D01*
Y564987D01*
X1450016Y584981D01*
X1410029D01*
X1390036Y564987D01*
X1509997D02*
X1529991Y584981D01*
X1569978D01*
X1589971Y564987D01*
Y485013D01*
X1569978Y465019D01*
X1529991D01*
X1509997Y485013D01*
Y564987D01*
X1629958Y465019D02*
Y584981D01*
X1689939D01*
X1709932Y564987D01*
Y525000D01*
X1689939Y505006D01*
X1629958D01*
X1669945D02*
X1709932Y465019D01*
%TF.MD5,509f6b9d5789f13039178ad1e0f13282*%
M02*
