%TF.GenerationSoftware,Altium Limited,Altium Designer,23.10.1 (27)*%
G04 Layer_Physical_Order=1*
G04 Layer_Color=255*
%FSLAX45Y45*%
%MOMM*%
%TF.SameCoordinates,3B401655-87E5-4DED-8554-5CA7246403C5*%
%TF.FilePolarity,Positive*%
%TF.FileFunction,Copper,L1,Top,Signal*%
%TF.Part,Single*%
G01*
G75*
%TA.AperFunction,SMDPad,CuDef*%
%ADD10R,1.27000X3.68000*%
%ADD11R,0.95000X0.85000*%
%TA.AperFunction,Conductor*%
%ADD12C,0.38100*%
%TA.AperFunction,ComponentPad*%
%ADD13C,2.10000*%
%ADD14C,1.00000*%
%ADD15C,1.50000*%
%ADD16R,1.50000X1.50000*%
%TA.AperFunction,ViaPad*%
%ADD17C,1.00000*%
G36*
X3174104Y325896D02*
X810727D01*
X425896Y710727D01*
Y1889273D01*
X810727Y2274104D01*
X3174104D01*
Y325896D01*
D02*
G37*
%LPC*%
G36*
X2216823Y2177780D02*
X2183177D01*
X2150679Y2169072D01*
X2121541Y2152249D01*
X2097750Y2128459D01*
X2080928Y2099321D01*
X2072220Y2066823D01*
Y2033177D01*
X2080928Y2000679D01*
X2097750Y1971541D01*
X2121541Y1947750D01*
X2150679Y1930928D01*
X2183177Y1922220D01*
X2216823D01*
X2249321Y1930928D01*
X2278459Y1947750D01*
X2302249Y1971541D01*
X2319072Y2000679D01*
X2327780Y2033177D01*
Y2066823D01*
X2319072Y2099321D01*
X2302249Y2128459D01*
X2278459Y2152249D01*
X2249321Y2169072D01*
X2216823Y2177780D01*
D02*
G37*
G36*
X2617017Y2222780D02*
X2582983D01*
X2549602Y2216140D01*
X2518158Y2203115D01*
X2489859Y2184207D01*
X2465793Y2160141D01*
X2446884Y2131842D01*
X2433860Y2100398D01*
X2427220Y2067017D01*
Y2032983D01*
X2433860Y1999602D01*
X2446884Y1968158D01*
X2465793Y1939859D01*
X2489859Y1915793D01*
X2518158Y1896884D01*
X2549602Y1883860D01*
X2582983Y1877220D01*
X2617017D01*
X2650398Y1883860D01*
X2681842Y1896884D01*
X2710141Y1915793D01*
X2734207Y1939859D01*
X2753115Y1968158D01*
X2766140Y1999602D01*
X2772780Y2032983D01*
Y2067017D01*
X2766140Y2100398D01*
X2753115Y2131842D01*
X2734207Y2160141D01*
X2710141Y2184207D01*
X2681842Y2203115D01*
X2650398Y2216140D01*
X2617017Y2222780D01*
D02*
G37*
G36*
X716164Y1722780D02*
X683836D01*
X652609Y1714413D01*
X624611Y1698249D01*
X601752Y1675389D01*
X585587Y1647391D01*
X577220Y1616164D01*
Y1583836D01*
X585587Y1552609D01*
X601752Y1524611D01*
X624611Y1501752D01*
X652609Y1485587D01*
X683836Y1477220D01*
X716164D01*
X747391Y1485587D01*
X775389Y1501752D01*
X798249Y1524611D01*
X814413Y1552609D01*
X822780Y1583836D01*
Y1616164D01*
X814413Y1647391D01*
X798249Y1675389D01*
X775389Y1698249D01*
X747391Y1714413D01*
X716164Y1722780D01*
D02*
G37*
G36*
X1016164Y2122780D02*
X983836D01*
X952609Y2114413D01*
X924611Y2098249D01*
X901752Y2075389D01*
X885587Y2047391D01*
X877220Y2016164D01*
Y1983836D01*
X885587Y1952609D01*
X901752Y1924611D01*
X924611Y1901752D01*
X952609Y1885587D01*
X983836Y1877220D01*
X1016164D01*
X1047391Y1885587D01*
X1075389Y1901752D01*
X1098249Y1924611D01*
X1114413Y1952609D01*
X1117049Y1962448D01*
X1275000D01*
X1289370Y1965307D01*
X1301553Y1973447D01*
X1345554Y2017449D01*
X1464720D01*
Y1997981D01*
X1464719Y1994720D01*
Y1985280D01*
X1464720Y1982020D01*
Y1864720D01*
X1492448D01*
Y1749280D01*
X1445720D01*
Y1345720D01*
X1608280D01*
Y1749280D01*
X1567551D01*
Y1864720D01*
X1595280D01*
Y1982020D01*
X1595280Y1985280D01*
Y1994720D01*
X1595280Y1997981D01*
Y2017449D01*
X1779446D01*
X2073447Y1723447D01*
X2085630Y1715307D01*
X2100000Y1712448D01*
X2209446D01*
X2330299Y1591595D01*
Y1556325D01*
X2318032Y1549242D01*
X2300757Y1531968D01*
X2288543Y1510812D01*
X2282220Y1487214D01*
Y1462785D01*
X2288543Y1439188D01*
X2300757Y1418032D01*
X2318032Y1400757D01*
X2339188Y1388543D01*
X2362785Y1382220D01*
X2387214D01*
X2410812Y1388543D01*
X2431968Y1400757D01*
X2449242Y1418032D01*
X2461457Y1439188D01*
X2467780Y1462785D01*
Y1487214D01*
X2461457Y1510812D01*
X2449242Y1531968D01*
X2431968Y1549242D01*
X2410812Y1561457D01*
X2405402Y1562906D01*
Y1607150D01*
X2402543Y1621520D01*
X2394403Y1633703D01*
X2251553Y1776553D01*
X2239370Y1784693D01*
X2225000Y1787552D01*
X2115554D01*
X1821553Y2081553D01*
X1809370Y2089693D01*
X1795000Y2092552D01*
X1595280D01*
Y2115280D01*
X1464720D01*
Y2092552D01*
X1330000D01*
X1315630Y2089693D01*
X1303447Y2081553D01*
X1259446Y2037552D01*
X1117049D01*
X1114413Y2047391D01*
X1098249Y2075389D01*
X1075389Y2098249D01*
X1047391Y2114413D01*
X1016164Y2122780D01*
D02*
G37*
G36*
X2117780Y1567780D02*
X1932220D01*
Y1382220D01*
X2117780D01*
Y1567780D01*
D02*
G37*
G36*
X1283924Y1917780D02*
X1266076D01*
X1248838Y1913161D01*
X1233382Y1904237D01*
X1220763Y1891618D01*
X1211839Y1876162D01*
X1207220Y1858924D01*
Y1841077D01*
X1211839Y1823838D01*
X1220763Y1808382D01*
X1233382Y1795763D01*
X1237448Y1793415D01*
Y1749280D01*
X1191720D01*
Y1345720D01*
X1354280D01*
Y1749280D01*
X1312552D01*
Y1793415D01*
X1316618Y1795763D01*
X1329237Y1808382D01*
X1338161Y1823838D01*
X1342780Y1841077D01*
Y1858924D01*
X1338161Y1876162D01*
X1329237Y1891618D01*
X1316618Y1904237D01*
X1301162Y1913161D01*
X1283924Y1917780D01*
D02*
G37*
G36*
X2212215Y1392780D02*
X2187785D01*
X2164188Y1386457D01*
X2143032Y1374242D01*
X2125757Y1356968D01*
X2114547Y1337552D01*
X1925000D01*
X1910629Y1334693D01*
X1898447Y1326553D01*
X1661946Y1090052D01*
X1608280D01*
Y1254280D01*
X1445720D01*
Y850720D01*
X1608280D01*
Y1014948D01*
X1677500D01*
X1691870Y1017807D01*
X1704053Y1025947D01*
X1940554Y1262448D01*
X2114547D01*
X2125757Y1243032D01*
X2143032Y1225758D01*
X2164188Y1213543D01*
X2187785Y1207220D01*
X2212215D01*
X2235812Y1213543D01*
X2256968Y1225758D01*
X2274242Y1243032D01*
X2286457Y1264188D01*
X2292780Y1287785D01*
Y1312215D01*
X2286457Y1335812D01*
X2274242Y1356968D01*
X2256968Y1374242D01*
X2235812Y1386457D01*
X2212215Y1392780D01*
D02*
G37*
G36*
X2038218Y1225400D02*
X2037700D01*
Y1137700D01*
X2125400D01*
Y1138218D01*
X2118558Y1163753D01*
X2105340Y1186647D01*
X2086647Y1205340D01*
X2063753Y1218558D01*
X2038218Y1225400D01*
D02*
G37*
G36*
X2012300D02*
X2011782D01*
X1986247Y1218558D01*
X1963353Y1205340D01*
X1944660Y1186647D01*
X1931442Y1163753D01*
X1924600Y1138218D01*
Y1137700D01*
X2012300D01*
Y1225400D01*
D02*
G37*
G36*
X1361900Y1261900D02*
X1285700D01*
Y1065200D01*
X1361900D01*
Y1261900D01*
D02*
G37*
G36*
X1260300D02*
X1184100D01*
Y1065200D01*
X1260300D01*
Y1261900D01*
D02*
G37*
G36*
X2387214Y1217780D02*
X2362785D01*
X2339188Y1211457D01*
X2318032Y1199242D01*
X2300757Y1181968D01*
X2288543Y1160812D01*
X2282220Y1137215D01*
Y1112785D01*
X2288543Y1089188D01*
X2300757Y1068032D01*
X2318032Y1050758D01*
X2339188Y1038543D01*
X2362785Y1032220D01*
X2387214D01*
X2410812Y1038543D01*
X2431968Y1050758D01*
X2449242Y1068032D01*
X2461457Y1089188D01*
X2467780Y1112785D01*
Y1137215D01*
X2461457Y1160812D01*
X2449242Y1181968D01*
X2431968Y1199242D01*
X2410812Y1211457D01*
X2387214Y1217780D01*
D02*
G37*
G36*
X2125400Y1112300D02*
X2037700D01*
Y1024600D01*
X2038218D01*
X2063753Y1031442D01*
X2086647Y1044660D01*
X2105340Y1063353D01*
X2118558Y1086247D01*
X2125400Y1111782D01*
Y1112300D01*
D02*
G37*
G36*
X2012300D02*
X1924600D01*
Y1111782D01*
X1931442Y1086247D01*
X1944660Y1063353D01*
X1963353Y1044660D01*
X1986247Y1031442D01*
X2011782Y1024600D01*
X2012300D01*
Y1112300D01*
D02*
G37*
G36*
X716164Y1122780D02*
X683836D01*
X652609Y1114413D01*
X624611Y1098249D01*
X601752Y1075389D01*
X585587Y1047391D01*
X577220Y1016164D01*
Y983836D01*
X585587Y952609D01*
X601752Y924611D01*
X624611Y901752D01*
X652609Y885587D01*
X683836Y877220D01*
X716164D01*
X747391Y885587D01*
X775389Y901752D01*
X798249Y924611D01*
X814413Y952609D01*
X822780Y983836D01*
Y1016164D01*
X814413Y1047391D01*
X798249Y1075389D01*
X775389Y1098249D01*
X747391Y1114413D01*
X716164Y1122780D01*
D02*
G37*
G36*
X1361900Y1039800D02*
X1285700D01*
Y843100D01*
X1361900D01*
Y1039800D01*
D02*
G37*
G36*
X1260300D02*
X1184100D01*
Y843100D01*
X1260300D01*
Y1039800D01*
D02*
G37*
G36*
X1017168Y730400D02*
X1012700D01*
Y612700D01*
X1130400D01*
Y617168D01*
X1121514Y650333D01*
X1104346Y680067D01*
X1080067Y704346D01*
X1050333Y721514D01*
X1017168Y730400D01*
D02*
G37*
G36*
X987300D02*
X982832D01*
X949667Y721514D01*
X919933Y704346D01*
X895654Y680067D01*
X878486Y650333D01*
X869600Y617168D01*
Y612700D01*
X987300D01*
Y730400D01*
D02*
G37*
G36*
X1130400Y587300D02*
X1012700D01*
Y469600D01*
X1017168D01*
X1050333Y478486D01*
X1080067Y495654D01*
X1104346Y519933D01*
X1121514Y549667D01*
X1130400Y582832D01*
Y587300D01*
D02*
G37*
G36*
X987300D02*
X869600D01*
Y582832D01*
X878486Y549667D01*
X895654Y519933D01*
X919933Y495654D01*
X949667Y478486D01*
X982832Y469600D01*
X987300D01*
Y587300D01*
D02*
G37*
G36*
X2216823Y677780D02*
X2183177D01*
X2150679Y669072D01*
X2121541Y652249D01*
X2097750Y628459D01*
X2080928Y599321D01*
X2072220Y566823D01*
Y533177D01*
X2080928Y500679D01*
X2097750Y471541D01*
X2121541Y447750D01*
X2150679Y430928D01*
X2183177Y422220D01*
X2216823D01*
X2249321Y430928D01*
X2278459Y447750D01*
X2302249Y471541D01*
X2319072Y500679D01*
X2327780Y533177D01*
Y566823D01*
X2319072Y599321D01*
X2302249Y628459D01*
X2278459Y652249D01*
X2249321Y669072D01*
X2216823Y677780D01*
D02*
G37*
G36*
X2617017Y722780D02*
X2582983D01*
X2549602Y716140D01*
X2518158Y703115D01*
X2489859Y684207D01*
X2465793Y660141D01*
X2446884Y631842D01*
X2433860Y600398D01*
X2427220Y567017D01*
Y532983D01*
X2433860Y499602D01*
X2446884Y468158D01*
X2465793Y439859D01*
X2489859Y415793D01*
X2518158Y396884D01*
X2549602Y383860D01*
X2582983Y377220D01*
X2617017D01*
X2650398Y383860D01*
X2681842Y396884D01*
X2710141Y415793D01*
X2734207Y439859D01*
X2753115Y468158D01*
X2766140Y499602D01*
X2772780Y532983D01*
Y567017D01*
X2766140Y600398D01*
X2753115Y631842D01*
X2734207Y660141D01*
X2710141Y684207D01*
X2681842Y703115D01*
X2650398Y716140D01*
X2617017Y722780D01*
D02*
G37*
%LPD*%
D10*
X1527000Y1547500D02*
D03*
X1273000D02*
D03*
Y1052500D02*
D03*
X1527000D02*
D03*
D11*
X1530000Y2055000D02*
D03*
Y1925000D02*
D03*
D12*
X1273000Y1731500D02*
X1275000Y1733500D01*
Y1850000D01*
X1273000Y1547500D02*
Y1731500D01*
X1000000Y600000D02*
X1044423D01*
X1677500Y1052500D02*
X1925000Y1300000D01*
X2200000D01*
X1527000Y1052500D02*
X1677500D01*
X1275000Y2000000D02*
X1330000Y2055000D01*
X1530000D01*
X1000000Y2000000D02*
X1275000D01*
X2367850Y1482149D02*
X2375000Y1475000D01*
X2367850Y1482149D02*
Y1607150D01*
X2225000Y1750000D02*
X2367850Y1607150D01*
X2100000Y1750000D02*
X2225000D01*
X1795000Y2055000D02*
X2100000Y1750000D01*
X1530000Y2055000D02*
X1795000D01*
X1527000Y1731500D02*
X1530000Y1734500D01*
Y1925000D01*
X1527000Y1547500D02*
Y1731500D01*
D13*
X1000000Y600000D02*
D03*
X700000Y1000000D02*
D03*
Y1600000D02*
D03*
X1000000Y2000000D02*
D03*
D14*
X2600000Y2050000D02*
D03*
Y550000D02*
D03*
X2200000Y2050000D02*
D03*
Y550000D02*
D03*
D15*
Y1300000D02*
D03*
X2025000Y1125000D02*
D03*
X2375000D02*
D03*
Y1475000D02*
D03*
D16*
X2025000D02*
D03*
D17*
X1275000Y1850000D02*
D03*
%TF.MD5,507060c5484da1dfa3da759fa163a9ab*%
M02*
